<?xml version="1.0" encoding="UTF-8" standalone="no"?><!DOCTYPE svg PUBLIC "-//W3C//DTD SVG 1.1//EN" "http://www.w3.org/Graphics/SVG/1.1/DTD/svg11.dtd"><svg width="100%" height="100%" viewBox="0 0 4167 1250" version="1.1" xmlns="http://www.w3.org/2000/svg" xmlns:xlink="http://www.w3.org/1999/xlink" xml:space="preserve" xmlns:serif="http://www.serif.com/" style="fill-rule:evenodd;clip-rule:evenodd;stroke-linejoin:round;stroke-miterlimit:2;"><path d="M427.66,810.042l13.5,-18l16.5,-25.5l21,-46.5c2.25,-3.75 3.75,-8.25 5.25,-12c9.75,-18.75 19.5,-36.75 28.5,-55.5c8.25,-16.5 15,-33.75 23.25,-51l31.5,-69l8.25,-19.5c6.75,-16.5 9,-33 7.5,-51l-2.25,-48c-0.75,-13.5 -1.5,-27.75 -1.5,-41.25c0,-5.25 -1.5,-9.75 -6.75,-12c-4.5,-1.5 -8.25,-3 -12.75,-3.75l-23.25,-3l-33.75,-3c-18,-1.5 -35.25,-3 -53.25,-3.75c-15,-0.75 -30,-0.75 -45.75,-0.75c-6,-0 -12,-0.75 -18,-0.75c-12,-1.5 -24,-3 -36,-0.75c-8.25,1.5 -15.75,2.25 -24,3c-8.25,-0 -17.25,-0.75 -24.75,4.5l-0.75,-0c-7.5,1.5 -7.5,1.5 -8.25,9.75l0,4.5c0,18 -0.75,36.75 -0.75,54.75c-0.75,8.25 0,17.25 0.75,26.25c0,7.5 3.75,11.25 10.5,12.75c5.25,0.75 9.75,1.5 14.25,1.5c16.5,-0 33,-0.75 49.5,-0.75c10.5,-0 21,-0.75 30.75,1.5c18.75,3 37.5,5.25 56.25,4.5c2.25,-0.75 3.75,-0 6,-0l-8.25,17.25c-3.75,11.25 -7.5,21.75 -12,32.25c-2.25,6.75 -3.75,13.5 -6.75,19.5c-6.75,15.75 -13.5,30.75 -21,45.75c0,1.5 -1.5,3 -2.25,4.5c-6,10.5 -12,21 -17.25,31.5c-6,12.75 -10.5,26.25 -16.5,39.75c-5.25,12 -11.25,23.25 -17.25,35.25l-32.25,56.25c-4.5,6.75 -9,13.5 -12.75,20.25l-15.75,29.25c-6.75,12.75 -15,26.25 -25.5,37.5c-3,3 -3.75,7.5 -3.75,12l2.25,18.75c0,18 0.75,36.75 -1.5,54.75c-0.75,9 0,17.25 0,26.25c0,8.25 3,11.25 11.25,12.75c3,0.75 7.5,1.5 10.5,0.75c6.75,-0.75 13.5,0.75 20.25,0.75c20.25,-0 40.5,-0 60.75,-1.5l44.25,-3.75l29.25,-4.5c15.75,-2.25 30.75,-4.5 46.5,-6c7.5,-1.5 15,-3 23.25,-1.5c6.75,1.5 8.25,-0 10.5,-6.75c0.75,-5.25 0.75,-10.5 6,-14.25c1.5,-0.75 2.25,-4.5 2.25,-6.75c0.75,-14.25 1.5,-28.5 1.5,-43.5c0,-13.5 -0.75,-27 -0.75,-40.5c0,-15.75 -1.5,-17.25 -18,-17.25l-14.25,-0c-13.5,-2.25 -27.75,-2.25 -41.25,-1.5c-12,1.5 -24,1.5 -38.25,1.5l5.25,-6Z" style="fill:#927da4;fill-rule:nonzero;"/><path d="M607.66,719.292c0.75,9 2.25,18 3.75,27c1.5,7.5 3,15 3.75,22.5c2.25,18 4.5,36 12,53.25c6,14.25 12,27.75 21.75,40.5c8.25,10.5 16.5,21 26.25,30c9.75,9 19.5,16.5 30,23.25c6,3.75 12,8.25 18.75,12c3,2.25 6,3.75 9,5.25c9.75,5.25 20.25,6 30.75,9c18.75,5.25 38.25,7.5 57.75,3c9,-1.5 18.75,-3 27.75,-6.75c10.5,-4.5 21,-9.75 30.75,-15l15.75,-9c11.25,-7.5 18.75,-18 27.75,-27.75c7.5,-7.5 13.5,-15.75 18.75,-25.5c1.5,-3 3,-6 5.25,-9l12,-22.5c5.25,-9 9,-18 14.25,-27c5.25,-9 8.25,-18.75 11.25,-28.5c3.75,-12.75 5.25,-26.25 8.25,-39c3,-18.75 6.75,-36.75 9,-55.5c2.25,-15.75 5.25,-32.25 6,-48c0.75,-34.5 3.75,-68.25 -1.5,-102c-2.25,-12.75 -2.25,-26.25 -4.5,-39.75c-3.75,-16.5 -9,-33.75 -16.5,-49.5c-4.5,-9.75 -9,-19.5 -14.25,-29.25c-9,-15.75 -21.75,-27.75 -34.5,-39c-8.25,-7.5 -17.25,-13.5 -27.75,-16.5c-3.75,-1.5 -8.25,-2.25 -12,-4.5c-7.5,-3.75 -14.25,-5.25 -22.5,-6c-3,-0 -6,-0 -9,-0.75c-11.25,-3.75 -23.25,-4.5 -35.25,-5.25c-15,-0 -30.75,-0.75 -45.75,-0.75c-1.5,-0 -3.75,-0.75 -5.25,-0.75c-21,-3.75 -40.5,0.75 -58.5,12.75c-12.75,9.75 -25.5,19.5 -38.25,30c-8.25,6.75 -17.25,14.25 -24,23.25c-10.5,13.5 -19.5,27.75 -24.75,44.25l-11.25,36c-2.25,9 -5.25,18 -6,26.25c-3,19.5 -5.25,38.25 -6.75,57.75c-3,34.5 -7.5,69.75 -3.75,107.25l1.5,44.25Zm108,-35.25c0.75,-21.75 1.5,-42.75 3,-64.5c0,-9.75 0,-19.5 1.5,-29.25c2.25,-18 6,-36 8.25,-54.75c3,-21.75 12,-41.25 22.5,-60c4.5,-9 12.75,-16.5 20.25,-22.5c8.25,-6 16.5,-9.75 25.5,-12.75c2.25,-0.75 5.25,-0 7.5,-0c8.25,3 15,9.75 21.75,15.75l13.5,12c3,3 6,5.25 8.25,9l11.25,22.5c2.25,4.5 3.75,9 5.25,13.5c2.25,9 4.5,18 6,27.75c3,18 2.25,36.75 1.5,54.75c-1.5,23.25 -3,46.5 -5.25,69.75c-1.5,13.5 -3,27 -5.25,40.5c-0.75,6.75 -2.25,13.5 -4.5,20.25c-3.75,18 -10.5,34.5 -18.75,50.25c-6,12 -12.75,24.75 -22.5,33.75c-3.75,4.5 -7.5,8.25 -12,10.5c-3,1.5 -6.75,2.25 -10.5,1.5c-9.75,-1.5 -19.5,-4.5 -27,-11.25l-18.75,-17.25c-9,-9.75 -12.75,-21.75 -18,-33.75c-12,-24 -13.5,-49.5 -13.5,-75.75Z" style="fill:#927da4;fill-rule:nonzero;"/><path d="M1155.16,412.542c18.75,0.75 35.25,-1.5 51.75,-4.5c12,-1.5 24,-2.25 36,-2.25l12.75,-0c7.5,-0.75 11.25,-4.5 12.75,-12c0,-3.75 0.75,-7.5 0.75,-10.5l0,-54c0,-4.5 -0.75,-9.75 -1.5,-14.25c-0.75,-6.75 -2.25,-7.5 -9,-8.25c-14.25,-1.5 -28.5,-3.75 -42.75,-4.5c-15,-0.75 -30.75,-0.75 -45.75,-0.75c-18.75,-0 -36.75,-0 -54.75,0.75c-19.5,-0 -39,0.75 -58.5,1.5c-4.5,-0 -6.75,2.25 -8.25,6c-1.5,9.75 -3.75,18.75 -6,27.75c-0.75,5.25 -0.75,9.75 -0.75,15c-0.75,3.75 0.75,8.25 0.75,12l-1.5,18l0,31.5c-0.75,12 -1.5,24.75 -0.75,37.5c0.75,33.75 -0.75,67.5 -3,101.25c-1.5,23.25 -3,45.75 -3.75,68.25c-0.75,15.75 -0.75,30.75 -0.75,46.5l1.5,72c0.75,17.25 2.25,34.5 3.75,52.5l3,33c0.75,19.5 0,39 3,57.75c2.25,15 4.5,30 6,45.75c0.75,5.25 3.75,8.25 9,9c6,1.5 12,3 18.75,3c13.5,0.75 27,0.75 40.5,0.75c16.5,-0.75 33,-0 49.5,-2.25c13.5,-1.5 26.25,-2.25 39.75,-3c8.25,-0 16.5,-1.5 24,-2.25c5.25,-0 9.75,-0.75 14.25,-0.75c6.75,-0 13.5,0.75 19.5,-2.25c9,-3 11.25,-4.5 11.25,-13.5c0,-9 0.75,-18 0,-26.25c-1.5,-22.5 -2.25,-45 -4.5,-67.5c0,-6.75 -1.5,-7.5 -8.25,-8.25c-27,-2.25 -54,-4.5 -81,-6c-9.75,-0.75 -18.75,-0 -28.5,-0l-5.25,-0l-1.5,-114.75c4.5,-0.75 8.25,-0.75 12,-0.75c14.25,-2.25 29.25,-4.5 43.5,-5.25c14.25,-1.5 29.25,-3.75 44.25,-0.75c3.75,0.75 7.5,-0.75 10.5,-3.75c3,-3.75 3.75,-7.5 3.75,-11.25l-1.5,-55.5c0,-10.5 0,-21.75 -0.75,-32.25c-0.75,-7.5 -3,-9.75 -11.25,-9.75c-3.75,-0 -6.75,0.75 -10.5,-0c-22.5,-1.5 -45,-3 -67.5,-5.25c-3.75,-0 -7.5,-0.75 -11.25,-0.75c0,-6 0.75,-11.25 0.75,-17.25c0,-15 0.75,-30.75 0,-46.5l-2.25,-57l-2.25,-36Z" style="fill:#927da4;fill-rule:nonzero;"/><path d="M2210.03,421.708c0,9 2.25,12 11.25,12.75l18.75,1.5l0,15.75c0,9 2.25,12 11.25,12.75l21.75,1.5c9,0 18.75,0.75 27.75,0.75c13.5,0 27.75,0 41.25,1.5c1.5,0.75 3,0.75 4.5,0.75l28.5,0l-7.5,10.5c-6.75,9 -12,19.5 -18,29.25c-12.75,20.25 -25.5,39.75 -39,59.25c-9,15 -18.75,30 -29.25,45c-3.75,6 -9,12 -12.75,18c-11.25,18 -21.75,36.75 -33.75,54l-25.5,35.25l-22.5,34.5c-1.5,1.5 -2.25,3.75 -3.75,4.5c-4.5,2.25 -6,6.75 -6.75,10.5c-1.5,7.5 -2.25,15.75 -2.25,24l-1.5,55.5c-1.5,18 1.5,36.75 -0.75,54.75c-0.75,0.75 0,1.5 0,2.25c0,3.75 1.5,6 4.5,6.75c2.25,0.75 4.5,1.5 6,1.5l20.25,1.5c0,6 0,12 -0.75,18c-0.75,0.75 0,1.5 0,2.25c0,3.75 1.5,6 4.5,6.75c2.25,0.75 4.5,1.5 6,1.5l42.75,3l37.5,0c12.75,-0.75 25.5,-1.5 39,-1.5c10.5,0 21.75,0.75 33,1.5c12,0 24,0.75 36,0.75c8.25,0 15.75,0 23.25,1.5c9.75,2.25 19.5,3.75 29.25,4.5c8.25,0 17.25,-1.5 25.5,-2.25c4.5,-0.75 9,-1.5 12.75,-3c5.25,-1.5 9.75,-4.5 15,-6c5.25,-1.5 7.5,-4.5 8.25,-9c1.5,-6 2.25,-12 -3,-16.5c0.75,-5.25 1.5,-9.75 1.5,-14.25c0.75,-23.25 0.75,-46.5 0.75,-69.75c0.75,-3.75 -0.75,-7.5 -0.75,-11.25c-0.75,-5.25 -4.5,-7.5 -9,-7.5l-20.25,-0.75l0,-10.5c0.75,-3.75 -0.75,-7.5 -0.75,-11.25c-0.75,-5.25 -4.5,-7.5 -9,-7.5l-40.5,-2.25c-8.25,-0.75 -16.5,0 -25.5,-0.75l-30.75,-2.25c-11.25,0 -24,0.75 -35.25,0l-0.75,0l18.75,-26.25l24.75,-37.5c8.25,-11.25 15.75,-21.75 24.75,-32.25c9,-9.75 15.75,-21 23.25,-31.5c6.75,-9 12,-18.75 18.75,-27.75l24.75,-31.5c3,-3.75 5.25,-8.25 8.25,-11.25l39,-45c6.75,-8.25 12.75,-18 19.5,-26.25c1.5,-2.25 3,-6 5.25,-6c6,-1.5 7.5,-6 7.5,-11.25c0.75,-7.5 2.25,-15.75 2.25,-23.25c0.75,-6.75 0,-12.75 0,-18.75c0,-18 0.75,-36 0.75,-53.25l0,-4.5c-0.75,-6 -2.25,-6.75 -7.5,-7.5l-15,-1.5l-7.5,0l0,-21c-0.75,-6 -2.25,-6.75 -7.5,-7.5l-15,-1.5c-14.25,-0.75 -28.5,-0.75 -42,-3c-21.75,-3 -43.5,-3.75 -65.25,-4.5c-22.5,-0.75 -45,0 -66.75,-0.75c-18.75,0 -37.5,-1.5 -55.5,-1.5l-36.75,0c-5.25,0 -9.75,-1.5 -15,-1.5c-6.75,0 -12.75,3 -12.75,11.25c0,7.5 -0.75,15 -0.75,21.75c-0.75,15 -1.5,30.75 -1.5,45.75Zm22.5,-9.75l0,-48l21.75,1.5l27.75,1.5l40.5,1.5c9.75,0.75 20.25,1.5 30,0.75c15.75,0 32.25,-0.75 48,-0.75l54.75,2.25l48.75,2.25c0.75,0 0.75,0 1.5,0.75l0.75,0.75c-0.75,23.25 -1.5,46.5 -1.5,69.75c0,5.25 -1.5,9.75 -6,14.25c-12,12.75 -21.75,25.5 -33,39l-26.25,30l-25.5,33c-11.25,15 -23.25,29.25 -33.75,45c-8.25,11.25 -15,23.25 -23.25,34.5c-3.75,6 -9,10.5 -12.75,15.75c-10.5,15.75 -20.25,31.5 -30,47.25l-22.5,36.75l-7.5,9c-7.5,8.25 -13.5,18 -18,28.5l-3,4.5c-0.75,1.5 -2.25,3 -2.25,4.5c-3.75,12.75 3.75,20.25 16.5,18c4.5,-1.5 9.75,-2.25 15,-2.25c11.25,-0.75 23.25,-1.5 34.5,-0.75c8.25,0 16.5,1.5 25.5,1.5c9,0 18,-0.75 27.75,-0.75c11.25,0 23.25,0.75 34.5,0.75l46.5,0c-1.5,29.25 -3.75,57.75 0,86.25c-10.5,4.5 -21.75,9.75 -34.5,8.25c-5.25,-0.75 -9.75,0 -14.25,0c-3,0 -6,0 -8.25,-1.5c-14.25,-5.25 -30,-4.5 -44.25,-5.25c-9.75,0 -19.5,-0.75 -28.5,-1.5c-27.75,-0.75 -55.5,-1.5 -82.5,0.75c-10.5,0.75 -21,0.75 -31.5,0.75l-23.25,0c-0.75,-6.75 -1.5,-13.5 -1.5,-19.5c-0.75,-25.5 -0.75,-51 -0.75,-75.75c0,-4.5 0,-9 0.75,-13.5c0.75,-3 1.5,-6 3,-8.25c8.25,-12.75 16.5,-24.75 25.5,-36.75c9,-12.75 19.5,-25.5 29.25,-38.25l25.5,-37.5c6.75,-10.5 13.5,-21.75 21,-32.25c8.25,-12 18,-24 26.25,-36l15,-23.25c7.5,-12 15,-23.25 23.25,-34.5l27.75,-42l13.5,-18.75c7.5,-9 14.25,-18.75 21,-27.75c2.25,-3 4.5,-6.75 6,-10.5c3,-5.25 2.25,-11.25 0.75,-17.25c-0.75,-1.5 -3,-3.75 -5.25,-3.75c-20.25,-3.75 -40.5,-7.5 -60.75,-2.25c-11.25,2.25 -23.25,1.5 -35.25,1.5c-18.75,-0.75 -38.25,-3 -57,-3.75c-11.25,0 -22.5,0.75 -33.75,1.5l-6,0Z" style="fill:#927da4;fill-rule:nonzero;"/><path d="M2703.53,429.958c18.75,0.75 35.25,-1.5 51.75,-4.5c12,-1.5 24,-2.25 36,-2.25l12.75,0c7.5,-0.75 11.25,-4.5 12.75,-12c0,-3.75 0.75,-7.5 0.75,-10.5l0,-54c0,-4.5 -0.75,-9.75 -1.5,-14.25c-0.75,-6.75 -2.25,-7.5 -9,-8.25l-19.5,-2.25l0,-5.25c0,-4.5 -0.75,-9.75 -1.5,-14.25c-0.75,-6.75 -2.25,-7.5 -9,-8.25c-14.25,-1.5 -28.5,-3.75 -42.75,-4.5c-15,-0.75 -30.75,-0.75 -45.75,-0.75c-18.75,0 -36.75,0 -54.75,0.75c-19.5,0 -39,0.75 -58.5,1.5c-4.5,0 -6.75,2.25 -8.25,6c-1.5,9.75 -3.75,18.75 -6,27.75c-0.75,5.25 -0.75,9.75 -0.75,15c-0.75,3.75 0.75,8.25 0.75,12l-1.5,18l0,31.5c-0.75,12 -1.5,24.75 -0.75,37.5c0.75,33.75 -0.75,67.5 -3,101.25c-1.5,23.25 -3,45.75 -3.75,68.25c-0.75,15.75 -0.75,30.75 -0.75,46.5l1.5,72c0.75,17.25 2.25,34.5 3.75,52.5l3,33c0.75,19.5 0,39 3,57.75c2.25,15 4.5,30 6,45.75c0.75,5.25 3.75,8.25 9,9c6,1.5 12,3 18.75,3l2.25,18c0.75,5.25 3.75,8.25 9,9c6,1.5 12,3 18.75,3c13.5,0.75 27,0.75 40.5,0.75c16.5,-0.75 33,0 49.5,-2.25c13.5,-1.5 26.25,-2.25 39.75,-3c8.25,0 16.5,-1.5 24,-2.25c5.25,0 9.75,-0.75 14.25,-0.75c6.75,0 13.5,0.75 19.5,-2.25c9,-3 11.25,-4.5 11.25,-13.5c0,-9 0.75,-18 0,-26.25c-1.5,-22.5 -2.25,-45 -4.5,-67.5c0,-6.75 -1.5,-7.5 -8.25,-8.25c-6.75,0 -13.5,-1.5 -20.25,-1.5c0,-6.75 -0.75,-13.5 -1.5,-20.25c0,-6.75 -1.5,-7.5 -8.25,-8.25c-27,-2.25 -54,-4.5 -81,-6l-4.5,0l-0.75,-84.75c4.5,-0.75 8.25,-0.75 12,-0.75c14.25,-2.25 29.25,-4.5 43.5,-5.25c14.25,-1.5 29.25,-3.75 44.25,-0.75c3.75,0.75 7.5,-0.75 10.5,-3.75c3,-3.75 3.75,-7.5 3.75,-11.25l-1.5,-55.5c0,-10.5 0,-21.75 -0.75,-32.25c-0.75,-7.5 -3,-9.75 -11.25,-9.75c-3.75,0 -6.75,0.75 -10.5,0l-7.5,0c0,-6.75 -0.75,-13.5 -0.75,-20.25c-0.75,-7.5 -3,-9.75 -11.25,-9.75c-3.75,0 -6.75,0.75 -10.5,0c-15.75,-0.75 -32.25,-1.5 -48,-3c0,-12 0.75,-24 0,-36.75l-2.25,-57l-2.25,-36Zm67.5,-119.25l0,65.25l-16.5,0c-18,0 -35.25,3 -53.25,5.25c-9,1.5 -18,1.5 -27.75,3l-6.75,0c-5.25,0.75 -6.75,2.25 -6.75,8.25c0,20.25 0.75,40.5 0.75,60.75l0,29.25c0,15 -0.75,30 -0.75,44.25c0,9 0,17.25 -2.25,25.5c-1.5,5.25 -0.75,12 -0.75,18c0,5.25 2.25,6.75 7.5,7.5c3,0.75 6.75,0.75 10.5,0.75c15.75,-1.5 30.75,0.75 46.5,1.5l20.25,0c6.75,0 13.5,0.75 20.25,0.75c0.75,26.25 1.5,51.75 3,78l-10.5,0c-13.5,-3 -27.75,-1.5 -41.25,0c-11.25,1.5 -22.5,1.5 -33,3c-9,0.75 -17.25,1.5 -25.5,3c-3,0 -4.5,1.5 -4.5,4.5c-0.75,2.25 -0.75,3.75 -0.75,6c-0.75,18 -0.75,35.25 -0.75,53.25l0,53.25c0,7.5 0,15 0.75,22.5c0,5.25 2.25,9 8.25,11.25c6.75,2.25 14.25,3 21.75,3c10.5,0.75 21,0.75 32.25,0.75l63,0c2.25,16.5 3.75,32.25 3.75,48c0,9.75 0.75,19.5 1.5,29.25c0,6.75 -0.75,7.5 -6.75,8.25c-5.25,0.75 -11.25,0 -16.5,0.75c-9.75,0 -19.5,1.5 -29.25,0.75c-21.75,-0.75 -43.5,1.5 -65.25,2.25c-15.75,0.75 -31.5,0 -48,0l-29.25,0c0,-1.5 -0.75,-3 -1.5,-4.5c-1.5,-13.5 -2.25,-27.75 -4.5,-42c-4.5,-21.75 -1.5,-43.5 -3.75,-65.25c-2.25,-24.75 -4.5,-49.5 -6,-74.25l-1.5,-42.75l0,-31.5c0,-32.25 -0.75,-64.5 2.25,-96.75c3,-40.5 4.5,-81.75 5.25,-123c0.75,-24 3,-48.75 5.25,-72.75c0,-5.25 1.5,-10.5 1.5,-15.75c0.75,-3.75 0,-7.5 -0.75,-11.25c-0.75,-6 -0.75,-11.25 2.25,-18c13.5,-2.25 27,-2.25 40.5,-1.5c11.25,0 22.5,1.5 33.75,2.25l17.25,0c12.75,-0.75 26.25,-1.5 39,-1.5c12.75,-0.75 25.5,0 37.5,0c6.75,0.75 12.75,0.75 19.5,0.75Z" style="fill:#927da4;fill-rule:nonzero;"/><path d="M2975.03,725.458c9,-1.5 16.5,-3.75 24,-3c9.75,0.75 18.75,-1.5 27.75,-3l12.75,-2.25c13.5,-0.75 25.5,-4.5 37.5,-9c12,-3.75 21.75,-10.5 30,-18.75c8.25,-7.5 15.75,-15.75 22.5,-24.75c7.5,-11.25 14.25,-24.75 21,-36.75c1.5,-3 3,-6.75 3.75,-10.5c3.75,-10.5 6.75,-21 9,-31.5c3.75,-18 7.5,-36 9.75,-54.75c1.5,-13.5 1.5,-27 0.75,-40.5c0,-15.75 -2.25,-32.25 -6,-48c-4.5,-16.5 -11.25,-33 -20.25,-48c-7.5,-11.25 -15.75,-19.5 -27.75,-25.5l-2.25,-4.5c-7.5,-12 -17.25,-21 -30,-27c-9,-5.25 -18.75,-9 -28.5,-12.75c-15.75,-6.75 -31.5,-10.5 -48,-12.75c-10.5,-1.5 -21.75,-1.5 -32.25,-2.25c-18,-0.75 -36,0.75 -54,4.5c-14.25,3 -29.25,5.25 -44.25,7.5c-8.25,0.75 -17.25,3 -25.5,6c-9,3.75 -10.5,6.75 -9,16.5c0.75,1.5 0.75,3 0.75,4.5l-3,24c-1.5,18.75 -2.25,38.25 -3,57.75l-1.5,38.25c-0.75,13.5 -2.25,26.25 -2.25,39.75c-0.75,26.25 -1.5,53.25 -1.5,79.5c-0.75,42 0,84.75 0,127.5c0,22.5 1.5,45 0,67.5c-1.5,12.75 -1.5,26.25 -1.5,39.75c0,15.75 0.75,32.25 1.5,48.75c0,11.25 -0.75,22.5 0,33.75c0,10.5 3.75,13.5 14.25,13.5c2.25,0 4.5,-0.75 7.5,-0.75c2.25,0 5.25,-0.75 7.5,-0.75c0,5.25 0,12 0.75,18c0,10.5 3.75,13.5 14.25,13.5c2.25,0 4.5,-0.75 7.5,-0.75c12.75,-1.5 25.5,-3 37.5,-3c14.25,-0.75 28.5,-1.5 42.75,-5.25c9.75,-3 12,-5.25 11.25,-15.75l0,-3.75c-0.75,-14.25 -1.5,-27.75 -1.5,-41.25c-0.75,-16.5 0,-33.75 -0.75,-50.25c0,-24.75 -1.5,-48.75 -2.25,-73.5c0,-9.75 0.75,-19.5 0.75,-30Zm7.5,-148.5c0.75,-6 0.75,-12 0.75,-17.25c0,-23.25 -0.75,-45.75 -0.75,-68.25c0,-11.25 1.5,-21.75 2.25,-33.75c10.5,0 20.25,0 30.75,0.75c2.25,0 6,2.25 9,4.5c2.25,5.25 3,12 3.75,18.75c0.75,8.25 1.5,15.75 1.5,23.25c0,9.75 -2.25,18.75 -8.25,27.75c-9.75,14.25 -21.75,27 -33.75,40.5l-5.25,3.75Zm-115.5,-228c8.25,-4.5 17.25,-4.5 26.25,-6l21.75,-3.75l33,-5.25l38.25,-2.25c10.5,-1.5 21,0.75 31.5,2.25c18,3 34.5,9.75 50.25,17.25c17.25,7.5 29.25,20.25 37.5,36.75c6.75,13.5 11.25,27.75 15,42.75c1.5,6 2.25,12.75 3,19.5c1.5,12.75 3,24.75 3.75,36.75c0,9 0,18.75 -1.5,27.75l-9.75,48c-2.25,12.75 -9,23.25 -14.25,34.5c-9,15.75 -19.5,30.75 -32.25,43.5c-15,15 -33.75,24.75 -55.5,26.25l-33.75,4.5c-5.25,0.75 -9.75,0.75 -14.25,0.75c-8.25,0 -16.5,0 -24.75,0.75c-2.25,0 -4.5,0.75 -6.75,1.5c-6.75,3 -8.25,9.75 -9,16.5c0,9.75 0.75,19.5 0.75,29.25l2.25,43.5l1.5,103.5c0,7.5 0.75,15 1.5,24c-24.75,5.25 -51,2.25 -78,6.75l0,-7.5c0,-14.25 0,-27.75 -0.75,-41.25c-2.25,-25.5 0,-51 0.75,-75.75l0,-45c0,-47.25 -0.75,-93.75 0,-141c0.75,-30 2.25,-59.25 3.75,-89.25l3,-49.5c0.75,-21 0.75,-41.25 2.25,-61.5c0.75,-12.75 2.25,-25.5 4.5,-38.25Zm181.5,143.25l0,-4.5c0,-6 0,-12.75 -0.75,-18.75c-1.5,-13.5 -3,-27 -12,-37.5c-4.5,-4.5 -9.75,-9.75 -15,-13.5c-8.25,-6 -16.5,-12 -27,-13.5c-16.5,-3 -33.75,-1.5 -51,0.75c0,0 -0.75,0.75 -1.5,0.75c-3,0.75 -3.75,2.25 -4.5,4.5c-1.5,11.25 -3.75,21.75 -3.75,33l-1.5,107.25c0,13.5 -0.75,26.25 -1.5,39c0,5.25 0,10.5 0.75,15.75c2.25,7.5 12,9.75 18,4.5c0.75,-1.5 2.25,-2.25 3.75,-2.25l32.25,-8.25c11.25,-3.75 21,-11.25 27.75,-21.75c6.75,-9.75 15,-18 21,-27c5.25,-7.5 10.5,-15.75 12,-24.75c3,-12 1.5,-21.75 3,-33.75Z" style="fill:#927da4;fill-rule:nonzero;"/><path d="M3339.53,567.958c0,-14.25 -0.75,-28.5 -1.5,-43.5c-1.5,-27.75 -3,-56.25 -5.25,-84c-0.75,-11.25 -3.75,-22.5 -5.25,-33.75c-0.75,-3.75 -3.75,-6 -7.5,-6.75l-9.75,0c-3,0 -6,0.75 -9,0.75c-0.75,-7.5 -3,-15.75 -3.75,-24c-0.75,-3.75 -3.75,-6 -7.5,-6.75l-9.75,0c-3.75,0 -7.5,0.75 -10.5,0.75c-13.5,-0.75 -27,-0.75 -40.5,-2.25c-7.5,0 -15,3 -21.75,4.5c-2.25,5.25 -7.5,6.75 -11.25,10.5c-0.75,0.75 -1.5,3 -1.5,4.5l-2.25,20.25c-0.75,10.5 -1.5,20.25 -3,30.75c-1.5,19.5 -3.75,39 -4.5,57.75c-2.25,31.5 -3,63 -4.5,93.75c-0.75,12.75 -0.75,26.25 -0.75,39c-0.75,14.25 0,28.5 0.75,42.75l0,27.75c0.75,14.25 0.75,28.5 0.75,42.75c0,16.5 -0.75,32.25 -0.75,48.75c0,24.75 0.75,50.25 1.5,75.75l3,58.5c0.75,6 3.75,9 9,10.5c6,1.5 12,1.5 18,0c0.75,0 0.75,-0.75 1.5,-0.75l1.5,20.25c0.75,6 3.75,9 9,10.5c6,1.5 12,1.5 18,0c9.75,-2.25 18.75,-4.5 27.75,-5.25c14.25,0 27.75,-3.75 41.25,-6.75c9.75,-2.25 11.25,-1.5 12,-12.75c0.75,-17.25 0.75,-33.75 0.75,-50.25c0,-18 -0.75,-36 0,-54l3,-104.25c0.75,-2.25 0.75,-4.5 0.75,-6.75l120.75,4.5c-0.75,4.5 -0.75,9 0,13.5c0.75,9.75 1.5,19.5 1.5,29.25c-0.75,18 -1.5,36 -1.5,54c-0.75,21 -0.75,42 0.75,63c0,10.5 2.25,21.75 3.75,32.25c0.75,4.5 3.75,6 7.5,6.75c6.75,1.5 12,1.5 18.75,0c0.75,7.5 2.25,15.75 3.75,23.25c0.75,4.5 3.75,6 7.5,6.75c6.75,1.5 12,1.5 18.75,0c9.75,-1.5 20.25,0 30,-0.75c15.75,-0.75 30.75,-3 45.75,-3.75c5.25,-0.75 9,-4.5 9.75,-9.75c0.75,-3 0.75,-6 0.75,-9.75c0,-9.75 0,-19.5 0.75,-29.25l2.25,-66c1.5,-28.5 1.5,-56.25 3,-84.75c0.75,-19.5 1.5,-39.75 1.5,-59.25c0.75,-9 0,-18 0.75,-27c0.75,-12.75 2.25,-24.75 2.25,-37.5l2.25,-49.5c0,-17.25 0.75,-35.25 0.75,-53.25c0,-28.5 0,-57.75 2.25,-87c0.75,-16.5 3,-32.25 -0.75,-48.75c-1.5,-9.75 -3.75,-12 -12.75,-12.75c-5.25,0 -10.5,-0.75 -15,-0.75l-2.25,-16.5c-1.5,-9.75 -3.75,-12 -12.75,-12.75c-11.25,-0.75 -21.75,-1.5 -32.25,-1.5c-22.5,0.75 -44.25,2.25 -66,3.75c-12.75,0 -14.25,2.25 -14.25,14.25l0,42.75c-0.75,18.75 -0.75,38.25 -3.75,57c-4.5,26.25 -5.25,52.5 -6,78.75l0,21l-23.25,0l-57.75,1.5l-24.75,0Zm139.5,-189.75c3,0 6,-0.75 8.25,-0.75c8.25,-0.75 16.5,-0.75 24,-2.25c10.5,-2.25 21,-0.75 31.5,-0.75l16.5,0c2.25,6.75 2.25,13.5 2.25,19.5c0,12 -0.75,24 -0.75,36.75c0,33 0.75,66 0,99c0,13.5 -1.5,27 -2.25,41.25l-2.25,63.75c-3,36.75 -3,74.25 -4.5,111l-1.5,90c0,22.5 -1.5,44.25 -2.25,66.75c0,0.75 0,1.5 -0.75,2.25c-1.5,0.75 -3.75,0.75 -5.25,0.75c-8.25,0 -15.75,0.75 -24,1.5c-6,0 -12.75,-0.75 -18.75,-0.75l-28.5,0c-0.75,-7.5 -2.25,-14.25 -2.25,-21.75c0,-23.25 -0.75,-47.25 0,-70.5c1.5,-20.25 0.75,-41.25 0,-61.5c-0.75,-15.75 -0.75,-31.5 3.75,-46.5c0.75,-0.75 0.75,-1.5 0.75,-2.25c1.5,-12.75 -1.5,-18 -14.25,-20.25l-37.5,-3.75l-45,-2.25l-33,-1.5c-12,0 -24,-0.75 -36,-0.75c-1.5,0 -2.25,-1.5 -3.75,-2.25c-9,-3.75 -15,-0.75 -19.5,7.5c-6.75,11.25 -6.75,23.25 -6.75,35.25c0,15 -0.75,29.25 -0.75,43.5l-3,51l0,23.25l2.25,67.5l0,4.5l-9.75,2.25c-13.5,0.75 -27.75,2.25 -41.25,3.75c-6.75,0.75 -13.5,3 -20.25,3.75c-0.75,-6 -1.5,-11.25 -1.5,-17.25c-3,-42.75 -3,-84.75 -3,-127.5c0,-31.5 -0.75,-63.75 -1.5,-95.25c-0.75,-34.5 -0.75,-68.25 2.25,-102.75c1.5,-18 1.5,-36.75 2.25,-55.5l4.5,-71.25l3,-45c0.75,-3 1.5,-6 1.5,-9.75l66.75,1.5c0.75,10.5 3.75,20.25 3,31.5c-0.75,7.5 0,16.5 0.75,24.75c0.75,21.75 2.25,43.5 4.5,65.25c1.5,18 0.75,36 0,54l0,15.75c0.75,8.25 3.75,10.5 11.25,12.75c7.5,2.25 14.25,-0.75 21,-2.25c13.5,-2.25 26.25,-2.25 39,-2.25l44.25,0c15,-0.75 29.25,-2.25 44.25,-2.25c4.5,0 8.25,1.5 12,2.25c6.75,0.75 8.25,0 9.75,-6.75c0.75,-3 1.5,-6 1.5,-9c0,-21 -0.75,-42 0,-63.75c0.75,-16.5 3,-33.75 4.5,-51c1.5,-10.5 2.25,-21 3,-31.5c0,-15 0.75,-30 0.75,-45.75c0,-1.5 0.75,-3.75 0.75,-6Z" style="fill:#927da4;fill-rule:nonzero;"/><path d="M3806.03,486.958c-7.5,-15.75 -15.75,-30 -24,-45c-2.25,-5.25 -6,-9.75 -8.25,-15c-6.75,-14.25 -14.25,-27.75 -22.5,-40.5c-3.75,-6 -8.25,-9 -14.25,-8.25l-3,0c-3.75,-7.5 -8.25,-14.25 -12.75,-21.75c-3.75,-6 -8.25,-9 -14.25,-8.25c-3.75,0 -7.5,0.75 -10.5,1.5c-7.5,0.75 -15,3 -22.5,3.75c-7.5,0 -14.25,2.25 -21.75,5.25c-6.75,3 -14.25,4.5 -22.5,4.5c-5.25,0 -11.25,0 -17.25,0.75c-8.25,1.5 -10.5,3.75 -9.75,12c0,4.5 1.5,9 3,12.75l4.5,9c4.5,8.25 7.5,17.25 12.75,24.75c9,14.25 17.25,29.25 25.5,43.5c2.25,3.75 4.5,7.5 6,11.25l11.25,21l20.25,42.75c5.25,11.25 9,23.25 13.5,34.5c4.5,10.5 9,21 14.25,30.75c6,10.5 9.75,21.75 6.75,34.5l0,2.25l-1.5,75.75c0,25.5 -0.75,51.75 -1.5,77.25l-1.5,99.75c0,10.5 -0.75,20.25 -0.75,30c0.75,8.25 3,11.25 10.5,12c6,1.5 13.5,1.5 19.5,0.75l0,17.25c0.75,8.25 3,11.25 10.5,12c6.75,1.5 14.25,1.5 21,0.75c16.5,-0.75 33,-3 48.75,-3c9,-0.75 17.25,-1.5 25.5,-6c0.75,-0.75 2.25,-0.75 3,-0.75c6,-0.75 6.75,-0.75 7.5,-6.75c0.75,-8.25 2.25,-16.5 2.25,-24.75c1.5,-22.5 3,-45 3.75,-67.5l2.25,-112.5l2.25,-68.25c0,-4.5 1.5,-7.5 4.5,-10.5l14.25,-15c15.75,-14.25 29.25,-30 42,-47.25l17.25,-25.5l8.25,-12.75c6,-9 11.25,-18.75 16.5,-27.75l18.75,-30.75l13.5,-24.75c5.25,-11.25 10.5,-23.25 15,-35.25c2.25,-3.75 1.5,-8.25 1.5,-12.75c0,-3 -1.5,-6 -3.75,-9c-7.5,-7.5 -15.75,-15 -22.5,-23.25c-6,-6.75 -12,-12.75 -19.5,-18c-3.75,-3.75 -7.5,-7.5 -10.5,-12c-7.5,-8.25 -15,-15.75 -24.75,-21.75c-6.75,-4.5 -13.5,-5.25 -21,-4.5c-2.25,0.75 -4.5,2.25 -6,4.5l-29.25,34.5c-9,9.75 -17.25,20.25 -25.5,30c-7.5,8.25 -14.25,16.5 -21,25.5l-15.75,19.5l-18,24.75Zm-177,-99.75c26.25,0 48.75,-10.5 74.25,-12l8.25,13.5l20.25,38.25l21,39.75l21.75,40.5c3,6.75 5.25,13.5 7.5,20.25c2.25,6.75 7.5,8.25 13.5,9.75c5.25,0.75 8.25,-3 11.25,-6.75c9.75,-15 19.5,-30 30,-45c8.25,-11.25 18,-21.75 27,-33l9,-11.25l22.5,-25.5c8.25,-9 15.75,-18.75 23.25,-27.75l14.25,-15c13.5,10.5 24.75,24 38.25,35.25c-0.75,8.25 -6,13.5 -9.75,19.5l-13.5,21c-4.5,6.75 -9.75,13.5 -13.5,20.25c-6.75,14.25 -16.5,27 -22.5,41.25c-0.75,2.25 -3,3.75 -3.75,6l-10.5,15.75l-14.25,21c-8.25,11.25 -16.5,22.5 -25.5,33.75c-3.75,5.25 -9,9.75 -13.5,14.25c-6.75,7.5 -14.25,15 -20.25,22.5c-1.5,2.25 -2.25,5.25 -3,8.25l0,19.5c-0.75,19.5 -2.25,39 -2.25,59.25c-0.75,14.25 0.75,29.25 0.75,44.25c-0.75,31.5 -0.75,63 -2.25,95.25c-0.75,19.5 -3,39.75 -4.5,60.75c-3,0 -6,0.75 -9,0.75c-18,-0.75 -36.75,-0.75 -54.75,1.5l-12.75,2.25c0,-3 -0.75,-4.5 -0.75,-6.75l0,-100.5c0,-17.25 0.75,-34.5 0.75,-51.75c0,-34.5 0,-68.25 0.75,-102c0,-9.75 0,-18.75 0.75,-28.5c0,-7.5 -0.75,-13.5 -4.5,-20.25l-27,-52.5c-6.75,-14.25 -12,-29.25 -18,-44.25l-10.5,-24l-18,-38.25l-22.5,-40.5l-8.25,-18.75Z" style="fill:#927da4;fill-rule:nonzero;"/><path d="M2232.53,411.958l6,0c11.25,-0.75 22.5,-1.5 33.75,-1.5c18.75,0.75 38.25,3 57,3.75c12,0 24,0.75 35.25,-1.5c20.25,-5.25 40.5,-1.5 60.75,2.25c2.25,0 4.5,2.25 5.25,3.75c1.5,6 2.25,12 -0.75,17.25c-1.5,3.75 -3.75,7.5 -6,10.5c-6.75,9 -13.5,18.75 -21,27.75l-13.5,18.75l-27.75,42c-8.25,11.25 -15.75,22.5 -23.25,34.5l-15,23.25c-8.25,12 -18,24 -26.25,36c-7.5,10.5 -14.25,21.75 -21,32.25l-25.5,37.5c-9.75,12.75 -20.25,25.5 -29.25,38.25c-9,12 -17.25,24 -25.5,36.75c-1.5,2.25 -2.25,5.25 -3,8.25c-0.75,4.5 -0.75,9 -0.75,13.5c0,24.75 0,50.25 0.75,75.75c0,6 0.75,12.75 1.5,19.5l23.25,0c10.5,0 21,0 31.5,-0.75c27,-2.25 54.75,-1.5 82.5,-0.75c9,0.75 18.75,1.5 28.5,1.5c14.25,0.75 30,0 44.25,5.25c2.25,1.5 5.25,1.5 8.25,1.5c4.5,0 9,-0.75 14.25,0c12.75,1.5 24,-3.75 34.5,-8.25c-3.75,-28.5 -1.5,-57 0,-86.25l-46.5,0c-11.25,0 -23.25,-0.75 -34.5,-0.75c-9.75,0 -18.75,0.75 -27.75,0.75c-9,0 -17.25,-1.5 -25.5,-1.5c-11.25,-0.75 -23.25,0 -34.5,0.75c-5.25,0 -10.5,0.75 -15,2.25c-12.75,2.25 -20.25,-5.25 -16.5,-18c0,-1.5 1.5,-3 2.25,-4.5l3,-4.5c4.5,-10.5 10.5,-20.25 18,-28.5l7.5,-9l22.5,-36.75c9.75,-15.75 19.5,-31.5 30,-47.25c3.75,-5.25 9,-9.75 12.75,-15.75c8.25,-11.25 15,-23.25 23.25,-34.5c10.5,-15.75 22.5,-30 33.75,-45l25.5,-33l26.25,-30c11.25,-13.5 21,-26.25 33,-39c4.5,-4.5 6,-9 6,-14.25c0,-23.25 0.75,-46.5 1.5,-69.75l-0.75,-0.75c-0.75,-0.75 -0.75,-0.75 -1.5,-0.75l-48.75,-2.25l-54.75,-2.25c-15.75,0 -32.25,0.75 -48,0.75c-9.75,0.75 -20.25,0 -30,-0.75l-40.5,-1.5l-27.75,-1.5l-21.75,-1.5l0,48Z" style="fill:#fff;fill-rule:nonzero;"/><path d="M2771.03,310.708c-6.75,0 -12.75,0 -19.5,-0.75c-12,0 -24.75,-0.75 -37.5,0c-12.75,0 -26.25,0.75 -39,1.5l-17.25,0c-11.25,-0.75 -22.5,-2.25 -33.75,-2.25c-13.5,-0.75 -27,-0.75 -40.5,1.5c-3,6.75 -3,12 -2.25,18c0.75,3.75 1.5,7.5 0.75,11.25c0,5.25 -1.5,10.5 -1.5,15.75c-2.25,24 -4.5,48.75 -5.25,72.75c-0.75,41.25 -2.25,82.5 -5.25,123c-3,32.25 -2.25,64.5 -2.25,96.75l0,31.5l1.5,42.75c1.5,24.75 3.75,49.5 6,74.25c2.25,21.75 -0.75,43.5 3.75,65.25c2.25,14.25 3,28.5 4.5,42c0.75,1.5 1.5,3 1.5,4.5l29.25,0c16.5,0 32.25,0.75 48,0c21.75,-0.75 43.5,-3 65.25,-2.25c9.75,0.75 19.5,-0.75 29.25,-0.75c5.25,-0.75 11.25,0 16.5,-0.75c6,-0.75 6.75,-1.5 6.75,-8.25c-0.75,-9.75 -1.5,-19.5 -1.5,-29.25c0,-15.75 -1.5,-31.5 -3.75,-48l-63,0c-11.25,0 -21.75,0 -32.25,-0.75c-7.5,0 -15,-0.75 -21.75,-3c-6,-2.25 -8.25,-6 -8.25,-11.25c-0.75,-7.5 -0.75,-15 -0.75,-22.5l0,-53.25c0,-18 0,-35.25 0.75,-53.25c0,-2.25 0,-3.75 0.75,-6c0,-3 1.5,-4.5 4.5,-4.5c8.25,-1.5 16.5,-2.25 25.5,-3c10.5,-1.5 21.75,-1.5 33,-3c13.5,-1.5 27.75,-3 41.25,0l10.5,0c-1.5,-26.25 -2.25,-51.75 -3,-78c-6.75,0 -13.5,-0.75 -20.25,-0.75l-20.25,0c-15.75,-0.75 -30.75,-3 -46.5,-1.5c-3.75,0 -7.5,0 -10.5,-0.75c-5.25,-0.75 -7.5,-2.25 -7.5,-7.5c0,-6 -0.75,-12.75 0.75,-18c2.25,-8.25 2.25,-16.5 2.25,-25.5c0,-14.25 0.75,-29.25 0.75,-44.25l0,-29.25c0,-20.25 -0.75,-40.5 -0.75,-60.75c0,-6 1.5,-7.5 6.75,-8.25l6.75,0c9.75,-1.5 18.75,-1.5 27.75,-3c18,-2.25 35.25,-5.25 53.25,-5.25l16.5,0l0,-65.25Z" style="fill:#fff;fill-rule:nonzero;"/><path d="M2867.03,348.958c-2.25,12.75 -3.75,25.5 -4.5,38.25c-1.5,20.25 -1.5,40.5 -2.25,61.5l-3,49.5c-1.5,30 -3,59.25 -3.75,89.25c-0.75,47.25 0,93.75 0,141l0,45c-0.75,24.75 -3,50.25 -0.75,75.75c0.75,13.5 0.75,27 0.75,41.25l0,7.5c27,-4.5 53.25,-1.5 78,-6.75c-0.75,-9 -1.5,-16.5 -1.5,-24l-1.5,-103.5l-2.25,-43.5c0,-9.75 -0.75,-19.5 -0.75,-29.25c0.75,-6.75 2.25,-13.5 9,-16.5c2.25,-0.75 4.5,-1.5 6.75,-1.5c8.25,-0.75 16.5,-0.75 24.75,-0.75c4.5,0 9,0 14.25,-0.75l33.75,-4.5c21.75,-1.5 40.5,-11.25 55.5,-26.25c12.75,-12.75 23.25,-27.75 32.25,-43.5c5.25,-11.25 12,-21.75 14.25,-34.5l9.75,-48c1.5,-9 1.5,-18.75 1.5,-27.75c-0.75,-12 -2.25,-24 -3.75,-36.75c-0.75,-6.75 -1.5,-13.5 -3,-19.5c-3.75,-15 -8.25,-29.25 -15,-42.75c-8.25,-16.5 -20.25,-29.25 -37.5,-36.75c-15.75,-7.5 -32.25,-14.25 -50.25,-17.25c-10.5,-1.5 -21,-3.75 -31.5,-2.25l-38.25,2.25l-33,5.25l-21.75,3.75c-9,1.5 -18,1.5 -26.25,6Zm181.5,143.25c-1.5,12 0,21.75 -3,33.75c-1.5,9 -6.75,17.25 -12,24.75c-6,9 -14.25,17.25 -21,27c-6.75,10.5 -16.5,18 -27.75,21.75l-32.25,8.25c-1.5,0 -3,0.75 -3.75,2.25c-6,5.25 -15.75,3 -18,-4.5c-0.75,-5.25 -0.75,-10.5 -0.75,-15.75c0.75,-12.75 1.5,-25.5 1.5,-39l1.5,-107.25c0,-11.25 2.25,-21.75 3.75,-33c0.75,-2.25 1.5,-3.75 4.5,-4.5c0.75,0 1.5,-0.75 1.5,-0.75c17.25,-2.25 34.5,-3.75 51,-0.75c10.5,1.5 18.75,7.5 27,13.5c5.25,3.75 10.5,9 15,13.5c9,10.5 10.5,24 12,37.5c0.75,6 0.75,12.75 0.75,18.75l0,4.5Z" style="fill:#fff;fill-rule:nonzero;"/><path d="M3479.03,378.208c0,2.25 -0.75,4.5 -0.75,6c0,15.75 -0.75,30.75 -0.75,45.75c-0.75,10.5 -1.5,21 -3,31.5c-1.5,17.25 -3.75,34.5 -4.5,51c-0.75,21.75 0,42.75 0,63.75c0,3 -0.75,6 -1.5,9c-1.5,6.75 -3,7.5 -9.75,6.75c-3.75,-0.75 -7.5,-2.25 -12,-2.25c-15,0 -29.25,1.5 -44.25,2.25l-44.25,0c-12.75,0 -25.5,0 -39,2.25c-6.75,1.5 -13.5,4.5 -21,2.25c-7.5,-2.25 -10.5,-4.5 -11.25,-12.75l0,-15.75c0.75,-18 1.5,-36 0,-54c-2.25,-21.75 -3.75,-43.5 -4.5,-65.25c-0.75,-8.25 -1.5,-17.25 -0.75,-24.75c0.75,-11.25 -2.25,-21 -3,-31.5l-66.75,-1.5c0,3.75 -0.75,6.75 -1.5,9.75l-3,45l-4.5,71.25c-0.75,18.75 -0.75,37.5 -2.25,55.5c-3,34.5 -3,68.25 -2.25,102.75c0.75,31.5 1.5,63.75 1.5,95.25c0,42.75 0,84.75 3,127.5c0,6 0.75,11.25 1.5,17.25c6.75,-0.75 13.5,-3 20.25,-3.75c13.5,-1.5 27.75,-3 41.25,-3.75l9.75,-2.25l0,-4.5l-2.25,-67.5l0,-23.25l3,-51c0,-14.25 0.75,-28.5 0.75,-43.5c0,-12 0,-24 6.75,-35.25c4.5,-8.25 10.5,-11.25 19.5,-7.5c1.5,0.75 2.25,2.25 3.75,2.25c12,0 24,0.75 36,0.75l33,1.5l45,2.25l37.5,3.75c12.75,2.25 15.75,7.5 14.25,20.25c0,0.75 0,1.5 -0.75,2.25c-4.5,15 -4.5,30.75 -3.75,46.5c0.75,20.25 1.5,41.25 0,61.5c-0.75,23.25 0,47.25 0,70.5c0,7.5 1.5,14.25 2.25,21.75l28.5,0c6,0 12.75,0.75 18.75,0.75c8.25,-0.75 15.75,-1.5 24,-1.5c1.5,0 3.75,0 5.25,-0.75c0.75,-0.75 0.75,-1.5 0.75,-2.25c0.75,-22.5 2.25,-44.25 2.25,-66.75l1.5,-90c1.5,-36.75 1.5,-74.25 4.5,-111l2.25,-63.75c0.75,-14.25 2.25,-27.75 2.25,-41.25c0.75,-33 0,-66 0,-99c0,-12.75 0.75,-24.75 0.75,-36.75c0,-6 0,-12.75 -2.25,-19.5l-16.5,0c-10.5,0 -21,-1.5 -31.5,0.75c-7.5,1.5 -15.75,1.5 -24,2.25c-2.25,0 -5.25,0.75 -8.25,0.75Z" style="fill:#fff;fill-rule:nonzero;"/><path d="M3629.03,387.208c3,6.75 5.25,12.75 8.25,18.75c7.5,13.5 15,26.25 22.5,40.5c6,12 12,25.5 18,38.25c3.75,8.25 6.75,15.75 10.5,24c6,15 11.25,30 18,44.25c9,18 18,35.25 27,52.5c3.75,6.75 4.5,12.75 4.5,20.25c-0.75,9.75 -0.75,18.75 -0.75,28.5c-0.75,33.75 -0.75,67.5 -0.75,102c0,17.25 -0.75,34.5 -0.75,51.75l0,100.5c0,2.25 0.75,3.75 0.75,6.75c4.5,-0.75 8.25,-1.5 12.75,-2.25c18,-2.25 36.75,-2.25 54.75,-1.5c3,0 6,-0.75 9,-0.75c1.5,-21 3.75,-41.25 4.5,-60.75c1.5,-32.25 1.5,-63.75 2.25,-95.25c0,-15 -1.5,-30 -0.75,-44.25c0,-20.25 1.5,-39.75 2.25,-59.25l0,-19.5c0.75,-3 1.5,-6 3,-8.25c6,-7.5 13.5,-15 20.25,-22.5c4.5,-4.5 9.75,-9 13.5,-14.25c9,-11.25 17.25,-22.5 25.5,-33.75c4.5,-6.75 9.75,-14.25 14.25,-21c3.75,-5.25 6.75,-10.5 10.5,-15.75c0.75,-2.25 3,-3.75 3.75,-6c6,-14.25 15.75,-27 22.5,-41.25c3.75,-6.75 9,-13.5 13.5,-20.25c4.5,-6.75 9,-13.5 13.5,-21c3.75,-6 9,-11.25 9.75,-19.5c-13.5,-11.25 -24.75,-24.75 -38.25,-35.25c-5.25,5.25 -9.75,9.75 -14.25,15c-7.5,9 -15,18.75 -23.25,27.75c-7.5,8.25 -15,17.25 -22.5,25.5c-3,3.75 -6,7.5 -9,11.25c-9,11.25 -18.75,21.75 -27,33c-10.5,15 -20.25,30 -30,45c-3,3.75 -6,7.5 -11.25,6.75c-6,-1.5 -11.25,-3 -13.5,-9.75c-2.25,-6.75 -4.5,-13.5 -7.5,-20.25c-7.5,-13.5 -14.25,-27 -21.75,-40.5c-6.75,-13.5 -14.25,-26.25 -21,-39.75c-6.75,-12.75 -13.5,-26.25 -20.25,-38.25c-3,-5.25 -6,-9.75 -8.25,-13.5c-25.5,1.5 -48,12 -74.25,12Z" style="fill:#fff;fill-rule:nonzero;"/><path d="M1654.46,756.433c0.4,-6 -0.4,-11.6 -1.2,-16.8c-0.8,-4 -1.6,-8 -2,-12.4c-1.2,-6.8 -1.6,-14 -2.8,-20.8c-2.4,-13.6 -4,-27.6 -5.6,-41.6c-0.8,-7.2 -1.6,-14.4 -2.4,-21.6c-1.2,-10 -2.4,-19.6 -3.6,-29.6c-1.2,-10 -1.6,-19.6 -2.4,-29.6c-0.4,-4.4 -0.8,-8.8 -1.2,-12.8c-0.8,-8.4 -2,-16.4 -3.2,-24.4c-1.2,-8 -2,-15.6 -3.6,-23.6c-1.6,-6.4 -3.6,-13.2 -5.6,-19.6c-1.2,-3.2 -2,-6.4 -3.2,-9.2c-4,-7.2 -6.8,-15.2 -8,-23.2c-0.8,-4.4 -2,-8.4 -4.4,-12.4c-4,0.4 -8.4,0.4 -12,0.8c-2.4,0.4 -4.4,0.8 -6.8,1.2c-3.6,0.4 -7.2,0.8 -11.2,1.6c-7.6,0.8 -14.8,3.2 -22.8,2.4c-1.2,0 -2.4,0 -3.6,0.4c-0.4,0.4 -0.4,0.4 -0.4,0.8c-3.6,12.8 -7.6,25.6 -12,38c-1.2,3.2 -2,6 -3.2,9.2c-3.2,10.8 -7.2,21.6 -10.4,32.4c-2.8,9.6 -5.2,19.2 -8,29.2c-3.2,11.6 -6.8,23.6 -10.4,35.2c-0.4,1.2 -0.8,2.8 -1.2,4c-1.2,6 -2.4,12 -3.6,18c-1.6,5.6 -3.2,10.8 -4.4,16.4c-2.4,10 -4.8,20 -7.2,30c-1.6,8.4 -3.6,16.4 -5.6,24.8c-2.4,11.2 -4.8,22 -7.2,33.2c-1.6,6.8 -3.2,14 -5.2,21.2c13.6,0.8 26.4,1.2 38.8,2c2.4,-7.6 4.4,-15.2 6.4,-22.8c2,-6.4 3.6,-13.2 5.6,-19.6c2.4,-9.6 5.2,-19.2 7.6,-29.2c0.8,-3.2 2,-5.2 5.2,-6c7.2,-1.6 14.8,-3.6 22,-4.8c6.4,-1.2 12.4,-1.2 18.8,-1.6c8.4,0 16.4,0 24.8,0.4c3.6,0 4.4,0.8 4.8,4.4c0.8,5.6 1.2,11.6 1.6,17.6c0.4,9.6 0.8,19.2 1.6,28.4c0.4,8.4 1.6,16.8 2.4,25.2c0.4,3.6 0.4,7.2 0.8,11.2c14.8,-2.4 29.2,-4.4 44,-6.4Zm-63.2,-136c-8,0 -16,-0.4 -24,0c-5.6,0 -11.6,0 -17.2,2.8c-2.4,1.6 -4.8,0.4 -7.2,-0.4c-1.6,-0.8 -1.6,-2.4 -1.6,-3.6c0.8,-4.4 1.2,-8.8 2,-13.6c0.4,-2 0.8,-4.4 1.2,-6.8c2,-9.2 4,-18 6,-26.8c0.8,-4 1.6,-8 2.8,-12c1.6,-6.4 3.6,-12.8 5.6,-19.2c1.6,-5.6 3.2,-11.2 5.2,-16.4c1.2,-3.2 6.4,-4.8 9.2,-2.4l0.4,0.4c-0,4 3.6,6 4,9.6c1.2,8.8 4.4,16.4 7.6,24.4c4,10.4 7.6,20.8 10,32c0.8,4 1.2,8.4 2.4,12.8c-0,1.6 0.4,3.2 0.8,4.8c1.6,3.2 1.6,6.4 1.2,10c-0,3.6 -0.8,4 -4,4.8l-4.4,0l-0,-0.4Z" style="fill:#927da4;fill-rule:nonzero;"/><path d="M1742.46,754.833c-0,-2 0.4,-3.6 0.4,-5.2c0.4,-5.2 0.4,-10 0.4,-14.8c-0.4,-9.6 -0.4,-19.2 -1.2,-28.8l-2.8,-32.4l-0.8,-17.6l-1.6,-18c-0.4,-4.8 -0.4,-9.6 -0.4,-14.4l-0,-28.8c-0,-1.6 -0.4,-2.8 -0.4,-4.4c-0.4,-2.8 -0.8,-6 -0.8,-8.8c-0,-1.6 1.2,-2.4 2.4,-2.4c5.2,-0.8 8,1.2 8.8,6.4c-0,1.2 0.4,3.2 1.2,4.4l13.6,22.4c3.2,4.8 6,9.2 8.4,14l7.2,12.4c6.4,9.2 11.6,18.8 16.4,28.8c3.2,5.6 6,11.6 9.6,16.8c4.8,7.6 10.4,14.8 15.6,22l15.2,21.6c6,8.4 12.8,16 17.6,24.8c1.2,2 2.4,2.4 4.4,2.4c10.4,-0.4 21.2,-0.8 31.6,-0.8c3.6,0 7.2,0 11.2,0.4c-0,-4 0.4,-8 -0,-12c-0.8,-16.8 -2,-33.2 -2,-49.6c-0.4,-23.2 -1.2,-46.4 0.4,-69.6l0.8,-18.8l1.6,-32.4l0.8,-26c0.8,-16.8 2,-34 2.4,-50.8c0.4,-7.2 -0,-14 -0,-21.2l-0,-6c-16,-1.6 -31.2,-0.8 -47.2,2.8l-0,6.4c-0,13.2 -0.4,26.4 -0.4,39.2l-1.2,26.4l-0,24.4c-0,12.4 -0.4,24.8 -0,37.6l1.6,28.8l-0,4.8c-0.4,0.8 -0.8,2 -1.6,2.4c-2,1.2 -7.2,-0.4 -8.4,-2.4l-13.2,-18.4c-2,-2.8 -4.8,-6 -7.2,-8.8c-2,-2.8 -4,-6.4 -6.4,-8.8c-7.6,-9.2 -14,-19.2 -20.4,-29.2c-3.2,-5.2 -5.6,-10.4 -9.6,-15.2c-1.2,-0.8 -1.6,-2.4 -2,-3.6l-2,-3.2l-10.8,-16.4c-2.4,-3.6 -4.4,-7.6 -6.4,-11.2c-2.4,-4 -4.8,-8 -6.8,-12c-3.2,-6 -6,-12 -10.4,-17.2c-2.8,-3.2 -4.8,-6.8 -7.2,-10.4c-0.4,-0.8 -1.6,-1.2 -2.8,-1.2c-0.8,-0.4 -2.4,0 -3.2,0c-4.8,0.8 -9.6,2 -14.4,2c-1.2,-0.4 -2.8,0 -4,0.8c-5.2,2 -10.8,3.6 -16.4,4.4c-1.6,0 -3.6,0.4 -5.2,1.2l-9.6,4.8c-0,0 -0.4,1.2 -0.4,2c-0,10 -0.4,20.4 -0,30.4l1.2,33.6l2,57.6l1.6,42.4l2,29.6c0.4,8.8 1.6,17.6 2.8,26.8c0.8,9.2 1.2,18.8 4.4,27.6l2,12c13.2,-1.6 26,-5.2 39.6,-3.6Z" style="fill:#927da4;fill-rule:nonzero;"/><path d="M1940.46,766.433l19.2,2.4c4.4,0.4 8.4,0.8 12.8,0c3.6,-0.8 7.6,-1.2 11.6,-1.6l14.8,-1.6c2,-0.4 4.4,-0.8 6,-2c6.4,-2.8 12.4,-5.6 19.2,-7.2c5.2,-1.2 10,-3.6 14,-6.8c4,-3.2 6.8,-6.8 10.8,-9.6c7.6,-5.6 13.2,-13.2 19.2,-20.4c3.6,-4.4 6,-9.6 8.4,-14.4l4.4,-11.2c3.2,-8.4 5.2,-16.8 6.8,-25.6c1.2,-8.4 2.8,-16.4 3.6,-24.4c1.2,-8.4 2.4,-16.8 2.8,-25.2c0.8,-6.4 0.4,-13.2 0.4,-19.6c-0,-6.8 -0,-13.6 -0.8,-20.4c-0.8,-7.2 -2.4,-14.8 -3.6,-22.4c-0.8,-4 -1.6,-8.4 -2.8,-12.4c-1.2,-6.4 -4.8,-12 -7.2,-18.4c-1.2,-3.2 -3.2,-6.4 -4.8,-9.6l-6.8,-11.2l-4,-4.4l-7.6,-8c-7.2,-6.4 -16,-10.8 -24.8,-15.2c-4.8,-2.4 -10.4,-4.4 -15.6,-6c-7.2,-2 -14.8,-3.2 -22,-4.8c-6.4,-1.2 -12.8,-2.4 -19.2,-1.6c-2.8,0.4 -6,0.8 -9.2,0.4c-7.2,-1.6 -14,0.4 -20.8,2.4l-5.2,2l-0,2l-0.8,22.4l-1.6,18l-1.2,39.2c-0,11.6 -0.4,22.8 -0.4,34.4l-0,54l0.8,39.6c-0,9.2 0.4,18.8 0.8,28.4c0.4,4.4 0.8,9.2 0.8,13.6l2,30.8l-0,14.4Zm112,-165.2c-0.4,4.8 -0.8,9.2 -0.8,13.6c-0,3.6 -0.4,7.2 -0.4,10.8c0.8,8 -1.2,15.6 -2.4,23.2c-2,13.6 -6,26.4 -11.6,38.8c-4.8,10.8 -12.4,20 -22.8,27.2c-6.4,4.4 -13.6,7.2 -21.2,9.6l-8.8,3.6c-3.2,2 -6.4,1.6 -10,0.8c-1.6,-0.8 -2.4,-2 -2.4,-3.6c-1.6,-12.8 -3.2,-25.2 -4.4,-37.6c-0.8,-6.4 -0.8,-12.4 -1.2,-18.4c-0,-6 -0.8,-11.6 -0.8,-17.2c-0.4,-12.8 -1.2,-25.6 -1.2,-38.4c-0.4,-18.4 0.4,-36.4 1.2,-54.8c0.8,-9.2 0.8,-18.4 1.2,-27.6c-0,-1.2 -0.4,-2.4 0.4,-3.6c0.4,-1.2 1.2,-2.4 2.4,-3.2c5.2,-2.8 10.8,-4.4 16.8,-4c1.6,0 3.6,0 5.6,-0.4c6.8,-0.8 14,0 20,2.8c8.8,4 16.8,8.4 22.8,16c6.8,9.2 12,19.2 14,30.8c1.6,10.4 4,21.2 3.6,31.6Z" style="fill:#927da4;fill-rule:nonzero;"/></svg>